<svg width="161" height="80" viewBox="0 0 161 80" fill="none" xmlns="http://www.w3.org/2000/svg">
<path d="M14.74 43.378C12.112 43.378 9.736 42.928 7.612 42.028C5.524 41.128 3.868 39.832 2.644 38.14C1.42 36.448 0.79 34.45 0.754 32.146H8.854C8.962 33.694 9.502 34.918 10.474 35.818C11.482 36.718 12.85 37.168 14.578 37.168C16.342 37.168 17.728 36.754 18.736 35.926C19.744 35.062 20.248 33.946 20.248 32.578C20.248 31.462 19.906 30.544 19.222 29.824C18.538 29.104 17.674 28.546 16.63 28.15C15.622 27.718 14.218 27.25 12.418 26.746C9.97 26.026 7.972 25.324 6.424 24.64C4.912 23.92 3.598 22.858 2.482 21.454C1.402 20.014 0.862 18.106 0.862 15.73C0.862 13.498 1.42 11.554 2.536 9.898C3.652 8.242 5.218 6.982 7.234 6.118C9.25 5.218 11.554 4.768 14.146 4.768C18.034 4.768 21.184 5.722 23.596 7.63C26.044 9.502 27.394 12.13 27.646 15.514H19.33C19.258 14.218 18.7 13.156 17.656 12.328C16.648 11.464 15.298 11.032 13.606 11.032C12.13 11.032 10.942 11.41 10.042 12.166C9.178 12.922 8.746 14.02 8.746 15.46C8.746 16.468 9.07 17.314 9.718 17.998C10.402 18.646 11.23 19.186 12.202 19.618C13.21 20.014 14.614 20.482 16.414 21.022C18.862 21.742 20.86 22.462 22.408 23.182C23.956 23.902 25.288 24.982 26.404 26.422C27.52 27.862 28.078 29.752 28.078 32.092C28.078 34.108 27.556 35.98 26.512 37.708C25.468 39.436 23.938 40.822 21.922 41.866C19.906 42.874 17.512 43.378 14.74 43.378ZM47.9163 43.486C45.0363 43.486 42.4443 42.856 40.1403 41.596C37.8363 40.3 36.0183 38.482 34.6863 36.142C33.3903 33.802 32.7423 31.102 32.7423 28.042C32.7423 24.982 33.4083 22.282 34.7403 19.942C36.1083 17.602 37.9623 15.802 40.3023 14.542C42.6423 13.246 45.2523 12.598 48.1323 12.598C51.0123 12.598 53.6223 13.246 55.9623 14.542C58.3023 15.802 60.1383 17.602 61.4703 19.942C62.8383 22.282 63.5223 24.982 63.5223 28.042C63.5223 31.102 62.8203 33.802 61.4162 36.142C60.0483 38.482 58.1763 40.3 55.8003 41.596C53.4603 42.856 50.8323 43.486 47.9163 43.486ZM47.9163 36.898C49.2843 36.898 50.5623 36.574 51.7503 35.926C52.9743 35.242 53.9463 34.234 54.6663 32.902C55.3863 31.57 55.7463 29.95 55.7463 28.042C55.7463 25.198 54.9903 23.02 53.4783 21.508C52.0023 19.96 50.1843 19.186 48.0243 19.186C45.8643 19.186 44.0463 19.96 42.5703 21.508C41.1303 23.02 40.4103 25.198 40.4103 28.042C40.4103 30.886 41.1123 33.082 42.5163 34.63C43.9563 36.142 45.7563 36.898 47.9163 36.898ZM67.1238 28.042C67.1238 24.946 67.7538 22.246 69.0138 19.942C70.2738 17.602 72.0198 15.802 74.2518 14.542C76.4838 13.246 79.0398 12.598 81.9198 12.598C85.6278 12.598 88.6878 13.534 91.0998 15.406C93.5478 17.242 95.1858 19.834 96.0138 23.182H87.8598C87.4278 21.886 86.6898 20.878 85.6458 20.158C84.6378 19.402 83.3778 19.024 81.8658 19.024C79.7058 19.024 77.9958 19.816 76.7358 21.4C75.4758 22.948 74.8458 25.162 74.8458 28.042C74.8458 30.886 75.4758 33.1 76.7358 34.684C77.9958 36.232 79.7058 37.006 81.8658 37.006C84.9258 37.006 86.9238 35.638 87.8598 32.902H96.0138C95.1858 36.142 93.5478 38.716 91.0998 40.624C88.6518 42.532 85.5918 43.486 81.9198 43.486C79.0398 43.486 76.4838 42.856 74.2518 41.596C72.0198 40.3 70.2738 38.5 69.0138 36.196C67.7538 33.856 67.1238 31.138 67.1238 28.042ZM105.386 9.52C104.054 9.52 102.938 9.106 102.038 8.278C101.174 7.414 100.742 6.352 100.742 5.092C100.742 3.832 101.174 2.788 102.038 1.96C102.938 1.096 104.054 0.663998 105.386 0.663998C106.718 0.663998 107.816 1.096 108.68 1.96C109.58 2.788 110.03 3.832 110.03 5.092C110.03 6.352 109.58 7.414 108.68 8.278C107.816 9.106 106.718 9.52 105.386 9.52ZM109.112 13.084V43H101.552V13.084H109.112ZM114.637 27.934C114.637 24.91 115.231 22.228 116.419 19.888C117.643 17.548 119.281 15.748 121.333 14.488C123.421 13.228 125.743 12.598 128.299 12.598C130.531 12.598 132.475 13.048 134.131 13.948C135.823 14.848 137.173 15.982 138.181 17.35V13.084H145.795V43H138.181V38.626C137.209 40.03 135.859 41.2 134.131 42.136C132.439 43.036 130.477 43.486 128.245 43.486C125.725 43.486 123.421 42.838 121.333 41.542C119.281 40.246 117.643 38.428 116.419 36.088C115.231 33.712 114.637 30.994 114.637 27.934ZM138.181 28.042C138.181 26.206 137.821 24.64 137.101 23.344C136.381 22.012 135.409 21.004 134.185 20.32C132.961 19.6 131.647 19.24 130.243 19.24C128.839 19.24 127.543 19.582 126.355 20.266C125.167 20.95 124.195 21.958 123.439 23.29C122.719 24.586 122.359 26.134 122.359 27.934C122.359 29.734 122.719 31.318 123.439 32.686C124.195 34.018 125.167 35.044 126.355 35.764C127.579 36.484 128.875 36.844 130.243 36.844C131.647 36.844 132.961 36.502 134.185 35.818C135.409 35.098 136.381 34.09 137.101 32.794C137.821 31.462 138.181 29.878 138.181 28.042ZM160.739 3.04V43H153.179V3.04H160.739ZM25 41.308V47.41H9.286V57.076H21.328V63.07H9.286V79H1.726V41.308H25ZM58.1708 63.394C58.1708 64.474 58.0988 65.446 57.9548 66.31H36.0848C36.2648 68.47 37.0208 70.162 38.3528 71.386C39.6848 72.61 41.3228 73.222 43.2668 73.222C46.0748 73.222 48.0728 72.016 49.2608 69.604H57.4148C56.5508 72.484 54.8948 74.86 52.4468 76.732C49.9988 78.568 46.9928 79.486 43.4288 79.486C40.5488 79.486 37.9568 78.856 35.6528 77.596C33.3848 76.3 31.6028 74.482 30.3068 72.142C29.0468 69.802 28.4168 67.102 28.4168 64.042C28.4168 60.946 29.0468 58.228 30.3068 55.888C31.5668 53.548 33.3308 51.748 35.5988 50.488C37.8668 49.228 40.4768 48.598 43.4288 48.598C46.2728 48.598 48.8108 49.21 51.0428 50.434C53.3108 51.658 55.0568 53.404 56.2808 55.672C57.5408 57.904 58.1708 60.478 58.1708 63.394ZM50.3408 61.234C50.3048 59.29 49.6028 57.742 48.2348 56.59C46.8668 55.402 45.1928 54.808 43.2128 54.808C41.3408 54.808 39.7568 55.384 38.4608 56.536C37.2008 57.652 36.4268 59.218 36.1388 61.234H50.3408ZM91.4989 63.394C91.4989 64.474 91.4269 65.446 91.2829 66.31H69.4129C69.5929 68.47 70.3489 70.162 71.6809 71.386C73.0129 72.61 74.6509 73.222 76.5949 73.222C79.4029 73.222 81.4009 72.016 82.5889 69.604H90.7429C89.8789 72.484 88.2229 74.86 85.7749 76.732C83.3269 78.568 80.3209 79.486 76.7569 79.486C73.8769 79.486 71.2849 78.856 68.9809 77.596C66.7129 76.3 64.9309 74.482 63.6349 72.142C62.3749 69.802 61.7449 67.102 61.7449 64.042C61.7449 60.946 62.3749 58.228 63.6349 55.888C64.8949 53.548 66.6589 51.748 68.9269 50.488C71.1949 49.228 73.8049 48.598 76.7569 48.598C79.6009 48.598 82.1389 49.21 84.3709 50.434C86.6389 51.658 88.3849 53.404 89.6089 55.672C90.8689 57.904 91.4989 60.478 91.4989 63.394ZM83.6689 61.234C83.6329 59.29 82.9309 57.742 81.5629 56.59C80.1949 55.402 78.5209 54.808 76.5409 54.808C74.6689 54.808 73.0849 55.384 71.7889 56.536C70.5289 57.652 69.7549 59.218 69.4669 61.234H83.6689ZM95.073 63.934C95.073 60.91 95.667 58.228 96.855 55.888C98.079 53.548 99.735 51.748 101.823 50.488C103.911 49.228 106.233 48.598 108.789 48.598C110.733 48.598 112.587 49.03 114.351 49.894C116.115 50.722 117.519 51.838 118.563 53.242V39.04H126.231V79H118.563V74.572C117.627 76.048 116.313 77.236 114.621 78.136C112.929 79.036 110.967 79.486 108.735 79.486C106.215 79.486 103.911 78.838 101.823 77.542C99.735 76.246 98.079 74.428 96.855 72.088C95.667 69.712 95.073 66.994 95.073 63.934ZM118.617 64.042C118.617 62.206 118.257 60.64 117.537 59.344C116.817 58.012 115.845 57.004 114.621 56.32C113.397 55.6 112.083 55.24 110.679 55.24C109.275 55.24 107.979 55.582 106.791 56.266C105.603 56.95 104.631 57.958 103.875 59.29C103.155 60.586 102.795 62.134 102.795 63.934C102.795 65.734 103.155 67.318 103.875 68.686C104.631 70.018 105.603 71.044 106.791 71.764C108.015 72.484 109.311 72.844 110.679 72.844C112.083 72.844 113.397 72.502 114.621 71.818C115.845 71.098 116.817 70.09 117.537 68.794C118.257 67.462 118.617 65.878 118.617 64.042ZM136.963 79.378C135.595 79.378 134.461 78.964 133.561 78.136C132.697 77.272 132.265 76.21 132.265 74.95C132.265 73.69 132.697 72.646 133.561 71.818C134.461 70.954 135.595 70.522 136.963 70.522C138.295 70.522 139.393 70.954 140.257 71.818C141.121 72.646 141.553 73.69 141.553 74.95C141.553 76.21 141.121 77.272 140.257 78.136C139.393 78.964 138.295 79.378 136.963 79.378Z" fill="url(#paint0_linear)"/>
<defs>
<linearGradient id="paint0_linear" x1="83.5" y1="6" x2="83.5" y2="83" gradientUnits="userSpaceOnUse">
<stop stop-color="#F44336" stop-opacity="0.74"/>
<stop offset="1" stop-color="#FFC107" stop-opacity="0.66"/>
</linearGradient>
</defs>
</svg>
